<svg width="57" height="42" viewBox="0 0 57 42" fill="none" xmlns="http://www.w3.org/2000/svg">
<path fill-rule="evenodd" clip-rule="evenodd" d="M31 0.5C31 0.223858 31.2239 0 31.5 0H48.5C48.7761 0 49 0.223858 49 0.5V4H56.5C56.7761 4 57 4.22386 57 4.5V41.5C57 41.7761 56.7761 42 56.5 42H39.5C39.2239 42 39 41.7761 39 41.5V38H31.5C31.2239 38 31 37.7761 31 37.5V0.5ZM38.5 9C38.2239 9 38 9.22386 38 9.5V32.5C38 32.7761 38.2239 33 38.5 33H49.5C49.7761 33 50 32.7761 50 32.5V9.5C50 9.22386 49.7761 9 49.5 9H38.5Z" fill="#252422"/>
<mask id="path-2-outside-1_195_232" maskUnits="userSpaceOnUse" x="0" y="3" width="27" height="36" fill="black">
<rect fill="white" y="3" width="27" height="36"/>
<path d="M26 11.3686L25.8862 11.3913C25.7192 11.3913 25.575 11.3458 25.4536 11.2548C25.3321 11.1487 25.1955 11.0805 25.0437 11.0502L25.0209 11.1411C25.0209 11.2624 25.0589 11.3761 25.1348 11.4823C25.2107 11.5884 25.2942 11.687 25.3852 11.7779C25.4763 11.8689 25.5598 11.9674 25.6357 12.0736C25.7116 12.1645 25.7495 12.2555 25.7495 12.3465C25.7495 12.4829 25.6585 12.5588 25.4763 12.5739C25.3094 12.5891 25.1803 12.6118 25.0893 12.6421C24.9071 12.6876 24.7629 12.8013 24.6566 12.9833C24.5504 13.1501 24.4214 13.3396 24.2696 13.5518C24.133 13.7489 23.9432 13.9309 23.7004 14.0977C23.4727 14.2493 23.1463 14.3251 22.7213 14.3251C22.19 14.3251 21.6588 14.2038 21.1275 13.9612C20.5203 13.6731 20.0801 13.3244 19.8069 12.915C19.5337 12.4905 19.3515 12.0508 19.2605 11.596C19.1694 11.1411 19.1163 10.6939 19.1011 10.2542C19.0859 9.79933 19.0328 9.38997 18.9417 9.02609C18.8506 8.66221 18.6761 8.37414 18.418 8.16187C18.16 7.93445 17.735 7.82074 17.143 7.82074C16.5965 7.82074 16.0197 7.88896 15.4126 8.02542C14.8054 8.14671 14.2438 8.35897 13.7277 8.66221C13.2268 8.95028 12.8094 9.32932 12.4754 9.79933C12.1415 10.2542 11.9745 10.8076 11.9745 11.4595C11.9745 12.1721 12.0049 12.7255 12.0656 13.1197C12.1263 13.4988 12.2553 13.7793 12.4526 13.9612C12.65 14.128 12.9384 14.2265 13.3179 14.2569C13.6973 14.272 14.2058 14.2796 14.8434 14.2796C14.9648 14.2796 15.1318 14.3706 15.3443 14.5525C15.5719 14.7193 15.792 14.924 16.0046 15.1666C16.2322 15.394 16.422 15.629 16.5738 15.8716C16.7407 16.1142 16.8242 16.3113 16.8242 16.4629C16.8242 16.8116 16.6724 17.0845 16.3689 17.2816C16.0804 17.4635 15.7313 17.6 15.3215 17.691C14.9117 17.7819 14.4942 17.835 14.0692 17.8502C13.6442 17.8653 13.3103 17.8729 13.0674 17.8729C12.8094 17.8729 12.5968 17.926 12.4299 18.0321C12.2781 18.1382 12.1642 18.2747 12.0883 18.4415C12.0124 18.6082 11.9593 18.7978 11.929 19.01C11.9138 19.2223 11.9062 19.4346 11.9062 19.6468C11.9062 20.6627 11.9593 21.6785 12.0656 22.6943C12.187 23.695 12.2477 24.7108 12.2477 25.7418C12.2477 26.3331 12.1642 26.8183 11.9973 27.1973C11.8455 27.5764 11.7696 27.8872 11.7696 28.1298C11.7696 28.2965 11.7999 28.4633 11.8607 28.6301C11.9366 28.7969 11.9745 28.9637 11.9745 29.1304C11.9745 29.464 11.9214 29.79 11.8151 30.1084C11.724 30.4116 11.6785 30.73 11.6785 31.0635C11.6785 31.3365 11.724 31.5715 11.8151 31.7686C11.9062 31.9505 12.0124 32.1324 12.1339 32.3144C12.2553 32.4812 12.3692 32.6479 12.4754 32.8147C12.5817 32.9815 12.6576 33.1786 12.7031 33.406C13.1129 33.3454 13.5152 33.262 13.9098 33.1559C14.3197 33.0497 14.7371 32.9967 15.1621 32.9967C15.4353 32.9967 15.8072 33.0118 16.2778 33.0421C16.7635 33.0725 17.2341 33.1483 17.6894 33.2696C18.16 33.3757 18.5622 33.5425 18.8962 33.7699C19.2453 33.9822 19.4199 34.2778 19.4199 34.6569C19.4199 34.9753 19.3743 35.2785 19.2832 35.5666C19.2073 35.8546 19.0859 36.12 18.9189 36.3625C18.752 36.6051 18.5471 36.8022 18.3042 36.9538C18.0613 37.1206 17.7805 37.2268 17.4617 37.2722C17.0519 37.3329 16.6497 37.4466 16.255 37.6134C15.8604 37.7802 15.4581 37.8635 15.0483 37.8635C14.7902 37.8635 14.5398 37.8181 14.2969 37.7271C14.0692 37.6361 13.8264 37.5376 13.5683 37.4314C13.3254 37.3405 13.075 37.2495 12.8169 37.1585C12.5589 37.0676 12.2857 37.0221 11.9973 37.0221C11.3142 37.0221 10.6387 37.0221 9.97086 37.0221C9.31815 37.0372 8.65027 37.0751 7.96721 37.1358C7.58774 37.1661 7.21585 37.2268 6.85155 37.3177C6.48725 37.4239 6.11536 37.5224 5.73588 37.6134C5.37158 37.7195 4.9997 37.8105 4.62022 37.8863C4.24074 37.9621 3.86126 38 3.48179 38C3.31481 38 3.11749 37.9697 2.8898 37.909C2.66211 37.8484 2.42684 37.765 2.18397 37.6589C1.95628 37.5527 1.73619 37.439 1.52368 37.3177C1.32635 37.2116 1.15938 37.0979 1.02277 36.9766L1 35.9304C1 35.4301 1.10625 35.0511 1.31876 34.7933C1.53127 34.5204 1.80449 34.3233 2.13843 34.202C2.48755 34.0656 2.88221 33.9822 3.3224 33.9518C3.7626 33.9215 4.21038 33.8988 4.66576 33.8836C5.13631 33.8684 5.59168 33.8457 6.03188 33.8154C6.47207 33.7699 6.85914 33.6713 7.19308 33.5197C7.5422 33.3681 7.82301 33.1407 8.03552 32.8375C8.24803 32.5191 8.35428 32.087 8.35428 31.5411C8.35428 31.3137 8.33151 31.0863 8.28597 30.8589C8.25562 30.6314 8.21008 30.404 8.14936 30.1766H8.1949C8.28597 30.0401 8.35428 29.843 8.39982 29.5853C8.46053 29.3124 8.49848 29.0243 8.51366 28.7211C8.52884 28.4178 8.53643 28.1298 8.53643 27.8569C8.53643 27.5688 8.53643 27.3414 8.53643 27.1746C8.53643 26.7501 8.52884 26.2952 8.51366 25.81C8.49848 25.3097 8.43018 24.8624 8.30874 24.4682C8.27839 24.3621 8.24044 24.2635 8.1949 24.1726C8.16454 24.0664 8.14936 23.9527 8.14936 23.8314C8.14936 23.4827 8.21008 23.1416 8.33151 22.808C8.45294 22.4593 8.51366 22.1106 8.51366 21.7619C8.51366 21.6254 8.49848 21.5269 8.46812 21.4662C8.45294 21.3904 8.42259 21.3298 8.37705 21.2843C8.34669 21.2236 8.31633 21.1706 8.28597 21.1251C8.25562 21.0644 8.23285 20.9886 8.21767 20.8977C8.32392 20.7309 8.40741 20.5565 8.46812 20.3746C8.54402 20.1775 8.58197 19.9804 8.58197 19.7833C8.58197 19.6013 8.54402 19.4497 8.46812 19.3284C8.39223 19.192 8.30874 19.0707 8.21767 18.9645C8.12659 18.8433 8.03552 18.722 7.94444 18.6007C7.86855 18.4794 7.8306 18.3429 7.8306 18.1913C7.61809 18.1913 7.34487 18.1913 7.01093 18.1913C6.67699 18.1761 6.31269 18.1534 5.91803 18.1231C5.52338 18.0928 5.12872 18.0397 4.73406 17.9639C4.33941 17.8881 3.9827 17.7895 3.66393 17.6682C3.34517 17.5318 3.07954 17.365 2.86703 17.1679C2.6697 16.9556 2.57104 16.6979 2.57104 16.3946C2.57104 16.1824 2.65452 15.9853 2.82149 15.8033C3.00364 15.6062 3.21615 15.4395 3.45902 15.303C3.71706 15.1666 3.9827 15.0604 4.25592 14.9846C4.54432 14.9088 4.78719 14.8709 4.98452 14.8709C5.19702 14.8709 5.40953 14.8785 5.62204 14.8936C5.84973 14.9088 6.06982 14.9164 6.28233 14.9164C6.51002 14.9164 6.78324 14.9012 7.102 14.8709C7.43594 14.8406 7.69399 14.7572 7.87614 14.6207C7.92168 14.5753 7.9748 14.4615 8.03552 14.2796C8.09624 14.0825 8.14936 13.8702 8.1949 13.6428C8.24044 13.4002 8.27839 13.1728 8.30874 12.9605C8.3391 12.7331 8.35428 12.5815 8.35428 12.5057C8.35428 12.157 8.32392 11.8234 8.26321 11.505C8.21767 11.1866 8.1949 10.8531 8.1949 10.5043C8.1949 10.004 8.25562 9.54158 8.37705 9.11706C8.49848 8.69253 8.74135 8.29833 9.10565 7.93445C9.53066 7.50992 9.93291 7.10056 10.3124 6.70635C10.707 6.29699 11.1093 5.93311 11.5191 5.61472C11.9441 5.29632 12.3995 5.02341 12.8852 4.79599C13.3862 4.56856 13.963 4.40936 14.6157 4.31839C15.071 4.25775 15.5264 4.18952 15.9818 4.11371C16.4523 4.0379 16.9229 4 17.3934 4C17.6515 4 17.993 4.0379 18.418 4.11371C18.8582 4.17436 19.3212 4.27291 19.8069 4.40936C20.3078 4.53066 20.8087 4.68227 21.3097 4.86421C21.8106 5.04615 22.2659 5.25842 22.6758 5.501C23.0856 5.72843 23.4196 5.98618 23.6776 6.27425C23.9356 6.54716 24.0647 6.84281 24.0647 7.1612C24.5352 7.17637 24.8767 7.33556 25.0893 7.6388C25.3169 7.94203 25.4763 8.30591 25.5674 8.73043C25.6585 9.15496 25.7192 9.60223 25.7495 10.0722C25.7799 10.5271 25.8482 10.9213 25.9545 11.2548L26 11.3686Z"/>
</mask>
<path d="M26 11.3686L25.8862 11.3913C25.7192 11.3913 25.575 11.3458 25.4536 11.2548C25.3321 11.1487 25.1955 11.0805 25.0437 11.0502L25.0209 11.1411C25.0209 11.2624 25.0589 11.3761 25.1348 11.4823C25.2107 11.5884 25.2942 11.687 25.3852 11.7779C25.4763 11.8689 25.5598 11.9674 25.6357 12.0736C25.7116 12.1645 25.7495 12.2555 25.7495 12.3465C25.7495 12.4829 25.6585 12.5588 25.4763 12.5739C25.3094 12.5891 25.1803 12.6118 25.0893 12.6421C24.9071 12.6876 24.7629 12.8013 24.6566 12.9833C24.5504 13.1501 24.4214 13.3396 24.2696 13.5518C24.133 13.7489 23.9432 13.9309 23.7004 14.0977C23.4727 14.2493 23.1463 14.3251 22.7213 14.3251C22.19 14.3251 21.6588 14.2038 21.1275 13.9612C20.5203 13.6731 20.0801 13.3244 19.8069 12.915C19.5337 12.4905 19.3515 12.0508 19.2605 11.596C19.1694 11.1411 19.1163 10.6939 19.1011 10.2542C19.0859 9.79933 19.0328 9.38997 18.9417 9.02609C18.8506 8.66221 18.6761 8.37414 18.418 8.16187C18.16 7.93445 17.735 7.82074 17.143 7.82074C16.5965 7.82074 16.0197 7.88896 15.4126 8.02542C14.8054 8.14671 14.2438 8.35897 13.7277 8.66221C13.2268 8.95028 12.8094 9.32932 12.4754 9.79933C12.1415 10.2542 11.9745 10.8076 11.9745 11.4595C11.9745 12.1721 12.0049 12.7255 12.0656 13.1197C12.1263 13.4988 12.2553 13.7793 12.4526 13.9612C12.65 14.128 12.9384 14.2265 13.3179 14.2569C13.6973 14.272 14.2058 14.2796 14.8434 14.2796C14.9648 14.2796 15.1318 14.3706 15.3443 14.5525C15.5719 14.7193 15.792 14.924 16.0046 15.1666C16.2322 15.394 16.422 15.629 16.5738 15.8716C16.7407 16.1142 16.8242 16.3113 16.8242 16.4629C16.8242 16.8116 16.6724 17.0845 16.3689 17.2816C16.0804 17.4635 15.7313 17.6 15.3215 17.691C14.9117 17.7819 14.4942 17.835 14.0692 17.8502C13.6442 17.8653 13.3103 17.8729 13.0674 17.8729C12.8094 17.8729 12.5968 17.926 12.4299 18.0321C12.2781 18.1382 12.1642 18.2747 12.0883 18.4415C12.0124 18.6082 11.9593 18.7978 11.929 19.01C11.9138 19.2223 11.9062 19.4346 11.9062 19.6468C11.9062 20.6627 11.9593 21.6785 12.0656 22.6943C12.187 23.695 12.2477 24.7108 12.2477 25.7418C12.2477 26.3331 12.1642 26.8183 11.9973 27.1973C11.8455 27.5764 11.7696 27.8872 11.7696 28.1298C11.7696 28.2965 11.7999 28.4633 11.8607 28.6301C11.9366 28.7969 11.9745 28.9637 11.9745 29.1304C11.9745 29.464 11.9214 29.79 11.8151 30.1084C11.724 30.4116 11.6785 30.73 11.6785 31.0635C11.6785 31.3365 11.724 31.5715 11.8151 31.7686C11.9062 31.9505 12.0124 32.1324 12.1339 32.3144C12.2553 32.4812 12.3692 32.6479 12.4754 32.8147C12.5817 32.9815 12.6576 33.1786 12.7031 33.406C13.1129 33.3454 13.5152 33.262 13.9098 33.1559C14.3197 33.0497 14.7371 32.9967 15.1621 32.9967C15.4353 32.9967 15.8072 33.0118 16.2778 33.0421C16.7635 33.0725 17.2341 33.1483 17.6894 33.2696C18.16 33.3757 18.5622 33.5425 18.8962 33.7699C19.2453 33.9822 19.4199 34.2778 19.4199 34.6569C19.4199 34.9753 19.3743 35.2785 19.2832 35.5666C19.2073 35.8546 19.0859 36.12 18.9189 36.3625C18.752 36.6051 18.5471 36.8022 18.3042 36.9538C18.0613 37.1206 17.7805 37.2268 17.4617 37.2722C17.0519 37.3329 16.6497 37.4466 16.255 37.6134C15.8604 37.7802 15.4581 37.8635 15.0483 37.8635C14.7902 37.8635 14.5398 37.8181 14.2969 37.7271C14.0692 37.6361 13.8264 37.5376 13.5683 37.4314C13.3254 37.3405 13.075 37.2495 12.8169 37.1585C12.5589 37.0676 12.2857 37.0221 11.9973 37.0221C11.3142 37.0221 10.6387 37.0221 9.97086 37.0221C9.31815 37.0372 8.65027 37.0751 7.96721 37.1358C7.58774 37.1661 7.21585 37.2268 6.85155 37.3177C6.48725 37.4239 6.11536 37.5224 5.73588 37.6134C5.37158 37.7195 4.9997 37.8105 4.62022 37.8863C4.24074 37.9621 3.86126 38 3.48179 38C3.31481 38 3.11749 37.9697 2.8898 37.909C2.66211 37.8484 2.42684 37.765 2.18397 37.6589C1.95628 37.5527 1.73619 37.439 1.52368 37.3177C1.32635 37.2116 1.15938 37.0979 1.02277 36.9766L1 35.9304C1 35.4301 1.10625 35.0511 1.31876 34.7933C1.53127 34.5204 1.80449 34.3233 2.13843 34.202C2.48755 34.0656 2.88221 33.9822 3.3224 33.9518C3.7626 33.9215 4.21038 33.8988 4.66576 33.8836C5.13631 33.8684 5.59168 33.8457 6.03188 33.8154C6.47207 33.7699 6.85914 33.6713 7.19308 33.5197C7.5422 33.3681 7.82301 33.1407 8.03552 32.8375C8.24803 32.5191 8.35428 32.087 8.35428 31.5411C8.35428 31.3137 8.33151 31.0863 8.28597 30.8589C8.25562 30.6314 8.21008 30.404 8.14936 30.1766H8.1949C8.28597 30.0401 8.35428 29.843 8.39982 29.5853C8.46053 29.3124 8.49848 29.0243 8.51366 28.7211C8.52884 28.4178 8.53643 28.1298 8.53643 27.8569C8.53643 27.5688 8.53643 27.3414 8.53643 27.1746C8.53643 26.7501 8.52884 26.2952 8.51366 25.81C8.49848 25.3097 8.43018 24.8624 8.30874 24.4682C8.27839 24.3621 8.24044 24.2635 8.1949 24.1726C8.16454 24.0664 8.14936 23.9527 8.14936 23.8314C8.14936 23.4827 8.21008 23.1416 8.33151 22.808C8.45294 22.4593 8.51366 22.1106 8.51366 21.7619C8.51366 21.6254 8.49848 21.5269 8.46812 21.4662C8.45294 21.3904 8.42259 21.3298 8.37705 21.2843C8.34669 21.2236 8.31633 21.1706 8.28597 21.1251C8.25562 21.0644 8.23285 20.9886 8.21767 20.8977C8.32392 20.7309 8.40741 20.5565 8.46812 20.3746C8.54402 20.1775 8.58197 19.9804 8.58197 19.7833C8.58197 19.6013 8.54402 19.4497 8.46812 19.3284C8.39223 19.192 8.30874 19.0707 8.21767 18.9645C8.12659 18.8433 8.03552 18.722 7.94444 18.6007C7.86855 18.4794 7.8306 18.3429 7.8306 18.1913C7.61809 18.1913 7.34487 18.1913 7.01093 18.1913C6.67699 18.1761 6.31269 18.1534 5.91803 18.1231C5.52338 18.0928 5.12872 18.0397 4.73406 17.9639C4.33941 17.8881 3.9827 17.7895 3.66393 17.6682C3.34517 17.5318 3.07954 17.365 2.86703 17.1679C2.6697 16.9556 2.57104 16.6979 2.57104 16.3946C2.57104 16.1824 2.65452 15.9853 2.82149 15.8033C3.00364 15.6062 3.21615 15.4395 3.45902 15.303C3.71706 15.1666 3.9827 15.0604 4.25592 14.9846C4.54432 14.9088 4.78719 14.8709 4.98452 14.8709C5.19702 14.8709 5.40953 14.8785 5.62204 14.8936C5.84973 14.9088 6.06982 14.9164 6.28233 14.9164C6.51002 14.9164 6.78324 14.9012 7.102 14.8709C7.43594 14.8406 7.69399 14.7572 7.87614 14.6207C7.92168 14.5753 7.9748 14.4615 8.03552 14.2796C8.09624 14.0825 8.14936 13.8702 8.1949 13.6428C8.24044 13.4002 8.27839 13.1728 8.30874 12.9605C8.3391 12.7331 8.35428 12.5815 8.35428 12.5057C8.35428 12.157 8.32392 11.8234 8.26321 11.505C8.21767 11.1866 8.1949 10.8531 8.1949 10.5043C8.1949 10.004 8.25562 9.54158 8.37705 9.11706C8.49848 8.69253 8.74135 8.29833 9.10565 7.93445C9.53066 7.50992 9.93291 7.10056 10.3124 6.70635C10.707 6.29699 11.1093 5.93311 11.5191 5.61472C11.9441 5.29632 12.3995 5.02341 12.8852 4.79599C13.3862 4.56856 13.963 4.40936 14.6157 4.31839C15.071 4.25775 15.5264 4.18952 15.9818 4.11371C16.4523 4.0379 16.9229 4 17.3934 4C17.6515 4 17.993 4.0379 18.418 4.11371C18.8582 4.17436 19.3212 4.27291 19.8069 4.40936C20.3078 4.53066 20.8087 4.68227 21.3097 4.86421C21.8106 5.04615 22.2659 5.25842 22.6758 5.501C23.0856 5.72843 23.4196 5.98618 23.6776 6.27425C23.9356 6.54716 24.0647 6.84281 24.0647 7.1612C24.5352 7.17637 24.8767 7.33556 25.0893 7.6388C25.3169 7.94203 25.4763 8.30591 25.5674 8.73043C25.6585 9.15496 25.7192 9.60223 25.7495 10.0722C25.7799 10.5271 25.8482 10.9213 25.9545 11.2548L26 11.3686Z" fill="#252422"/>
<path d="M26 11.3686L25.8862 11.3913C25.7192 11.3913 25.575 11.3458 25.4536 11.2548C25.3321 11.1487 25.1955 11.0805 25.0437 11.0502L25.0209 11.1411C25.0209 11.2624 25.0589 11.3761 25.1348 11.4823C25.2107 11.5884 25.2942 11.687 25.3852 11.7779C25.4763 11.8689 25.5598 11.9674 25.6357 12.0736C25.7116 12.1645 25.7495 12.2555 25.7495 12.3465C25.7495 12.4829 25.6585 12.5588 25.4763 12.5739C25.3094 12.5891 25.1803 12.6118 25.0893 12.6421C24.9071 12.6876 24.7629 12.8013 24.6566 12.9833C24.5504 13.1501 24.4214 13.3396 24.2696 13.5518C24.133 13.7489 23.9432 13.9309 23.7004 14.0977C23.4727 14.2493 23.1463 14.3251 22.7213 14.3251C22.19 14.3251 21.6588 14.2038 21.1275 13.9612C20.5203 13.6731 20.0801 13.3244 19.8069 12.915C19.5337 12.4905 19.3515 12.0508 19.2605 11.596C19.1694 11.1411 19.1163 10.6939 19.1011 10.2542C19.0859 9.79933 19.0328 9.38997 18.9417 9.02609C18.8506 8.66221 18.6761 8.37414 18.418 8.16187C18.16 7.93445 17.735 7.82074 17.143 7.82074C16.5965 7.82074 16.0197 7.88896 15.4126 8.02542C14.8054 8.14671 14.2438 8.35897 13.7277 8.66221C13.2268 8.95028 12.8094 9.32932 12.4754 9.79933C12.1415 10.2542 11.9745 10.8076 11.9745 11.4595C11.9745 12.1721 12.0049 12.7255 12.0656 13.1197C12.1263 13.4988 12.2553 13.7793 12.4526 13.9612C12.65 14.128 12.9384 14.2265 13.3179 14.2569C13.6973 14.272 14.2058 14.2796 14.8434 14.2796C14.9648 14.2796 15.1318 14.3706 15.3443 14.5525C15.5719 14.7193 15.792 14.924 16.0046 15.1666C16.2322 15.394 16.422 15.629 16.5738 15.8716C16.7407 16.1142 16.8242 16.3113 16.8242 16.4629C16.8242 16.8116 16.6724 17.0845 16.3689 17.2816C16.0804 17.4635 15.7313 17.6 15.3215 17.691C14.9117 17.7819 14.4942 17.835 14.0692 17.8502C13.6442 17.8653 13.3103 17.8729 13.0674 17.8729C12.8094 17.8729 12.5968 17.926 12.4299 18.0321C12.2781 18.1382 12.1642 18.2747 12.0883 18.4415C12.0124 18.6082 11.9593 18.7978 11.929 19.01C11.9138 19.2223 11.9062 19.4346 11.9062 19.6468C11.9062 20.6627 11.9593 21.6785 12.0656 22.6943C12.187 23.695 12.2477 24.7108 12.2477 25.7418C12.2477 26.3331 12.1642 26.8183 11.9973 27.1973C11.8455 27.5764 11.7696 27.8872 11.7696 28.1298C11.7696 28.2965 11.7999 28.4633 11.8607 28.6301C11.9366 28.7969 11.9745 28.9637 11.9745 29.1304C11.9745 29.464 11.9214 29.79 11.8151 30.1084C11.724 30.4116 11.6785 30.73 11.6785 31.0635C11.6785 31.3365 11.724 31.5715 11.8151 31.7686C11.9062 31.9505 12.0124 32.1324 12.1339 32.3144C12.2553 32.4812 12.3692 32.6479 12.4754 32.8147C12.5817 32.9815 12.6576 33.1786 12.7031 33.406C13.1129 33.3454 13.5152 33.262 13.9098 33.1559C14.3197 33.0497 14.7371 32.9967 15.1621 32.9967C15.4353 32.9967 15.8072 33.0118 16.2778 33.0421C16.7635 33.0725 17.2341 33.1483 17.6894 33.2696C18.16 33.3757 18.5622 33.5425 18.8962 33.7699C19.2453 33.9822 19.4199 34.2778 19.4199 34.6569C19.4199 34.9753 19.3743 35.2785 19.2832 35.5666C19.2073 35.8546 19.0859 36.12 18.9189 36.3625C18.752 36.6051 18.5471 36.8022 18.3042 36.9538C18.0613 37.1206 17.7805 37.2268 17.4617 37.2722C17.0519 37.3329 16.6497 37.4466 16.255 37.6134C15.8604 37.7802 15.4581 37.8635 15.0483 37.8635C14.7902 37.8635 14.5398 37.8181 14.2969 37.7271C14.0692 37.6361 13.8264 37.5376 13.5683 37.4314C13.3254 37.3405 13.075 37.2495 12.8169 37.1585C12.5589 37.0676 12.2857 37.0221 11.9973 37.0221C11.3142 37.0221 10.6387 37.0221 9.97086 37.0221C9.31815 37.0372 8.65027 37.0751 7.96721 37.1358C7.58774 37.1661 7.21585 37.2268 6.85155 37.3177C6.48725 37.4239 6.11536 37.5224 5.73588 37.6134C5.37158 37.7195 4.9997 37.8105 4.62022 37.8863C4.24074 37.9621 3.86126 38 3.48179 38C3.31481 38 3.11749 37.9697 2.8898 37.909C2.66211 37.8484 2.42684 37.765 2.18397 37.6589C1.95628 37.5527 1.73619 37.439 1.52368 37.3177C1.32635 37.2116 1.15938 37.0979 1.02277 36.9766L1 35.9304C1 35.4301 1.10625 35.0511 1.31876 34.7933C1.53127 34.5204 1.80449 34.3233 2.13843 34.202C2.48755 34.0656 2.88221 33.9822 3.3224 33.9518C3.7626 33.9215 4.21038 33.8988 4.66576 33.8836C5.13631 33.8684 5.59168 33.8457 6.03188 33.8154C6.47207 33.7699 6.85914 33.6713 7.19308 33.5197C7.5422 33.3681 7.82301 33.1407 8.03552 32.8375C8.24803 32.5191 8.35428 32.087 8.35428 31.5411C8.35428 31.3137 8.33151 31.0863 8.28597 30.8589C8.25562 30.6314 8.21008 30.404 8.14936 30.1766H8.1949C8.28597 30.0401 8.35428 29.843 8.39982 29.5853C8.46053 29.3124 8.49848 29.0243 8.51366 28.7211C8.52884 28.4178 8.53643 28.1298 8.53643 27.8569C8.53643 27.5688 8.53643 27.3414 8.53643 27.1746C8.53643 26.7501 8.52884 26.2952 8.51366 25.81C8.49848 25.3097 8.43018 24.8624 8.30874 24.4682C8.27839 24.3621 8.24044 24.2635 8.1949 24.1726C8.16454 24.0664 8.14936 23.9527 8.14936 23.8314C8.14936 23.4827 8.21008 23.1416 8.33151 22.808C8.45294 22.4593 8.51366 22.1106 8.51366 21.7619C8.51366 21.6254 8.49848 21.5269 8.46812 21.4662C8.45294 21.3904 8.42259 21.3298 8.37705 21.2843C8.34669 21.2236 8.31633 21.1706 8.28597 21.1251C8.25562 21.0644 8.23285 20.9886 8.21767 20.8977C8.32392 20.7309 8.40741 20.5565 8.46812 20.3746C8.54402 20.1775 8.58197 19.9804 8.58197 19.7833C8.58197 19.6013 8.54402 19.4497 8.46812 19.3284C8.39223 19.192 8.30874 19.0707 8.21767 18.9645C8.12659 18.8433 8.03552 18.722 7.94444 18.6007C7.86855 18.4794 7.8306 18.3429 7.8306 18.1913C7.61809 18.1913 7.34487 18.1913 7.01093 18.1913C6.67699 18.1761 6.31269 18.1534 5.91803 18.1231C5.52338 18.0928 5.12872 18.0397 4.73406 17.9639C4.33941 17.8881 3.9827 17.7895 3.66393 17.6682C3.34517 17.5318 3.07954 17.365 2.86703 17.1679C2.6697 16.9556 2.57104 16.6979 2.57104 16.3946C2.57104 16.1824 2.65452 15.9853 2.82149 15.8033C3.00364 15.6062 3.21615 15.4395 3.45902 15.303C3.71706 15.1666 3.9827 15.0604 4.25592 14.9846C4.54432 14.9088 4.78719 14.8709 4.98452 14.8709C5.19702 14.8709 5.40953 14.8785 5.62204 14.8936C5.84973 14.9088 6.06982 14.9164 6.28233 14.9164C6.51002 14.9164 6.78324 14.9012 7.102 14.8709C7.43594 14.8406 7.69399 14.7572 7.87614 14.6207C7.92168 14.5753 7.9748 14.4615 8.03552 14.2796C8.09624 14.0825 8.14936 13.8702 8.1949 13.6428C8.24044 13.4002 8.27839 13.1728 8.30874 12.9605C8.3391 12.7331 8.35428 12.5815 8.35428 12.5057C8.35428 12.157 8.32392 11.8234 8.26321 11.505C8.21767 11.1866 8.1949 10.8531 8.1949 10.5043C8.1949 10.004 8.25562 9.54158 8.37705 9.11706C8.49848 8.69253 8.74135 8.29833 9.10565 7.93445C9.53066 7.50992 9.93291 7.10056 10.3124 6.70635C10.707 6.29699 11.1093 5.93311 11.5191 5.61472C11.9441 5.29632 12.3995 5.02341 12.8852 4.79599C13.3862 4.56856 13.963 4.40936 14.6157 4.31839C15.071 4.25775 15.5264 4.18952 15.9818 4.11371C16.4523 4.0379 16.9229 4 17.3934 4C17.6515 4 17.993 4.0379 18.418 4.11371C18.8582 4.17436 19.3212 4.27291 19.8069 4.40936C20.3078 4.53066 20.8087 4.68227 21.3097 4.86421C21.8106 5.04615 22.2659 5.25842 22.6758 5.501C23.0856 5.72843 23.4196 5.98618 23.6776 6.27425C23.9356 6.54716 24.0647 6.84281 24.0647 7.1612C24.5352 7.17637 24.8767 7.33556 25.0893 7.6388C25.3169 7.94203 25.4763 8.30591 25.5674 8.73043C25.6585 9.15496 25.7192 9.60223 25.7495 10.0722C25.7799 10.5271 25.8482 10.9213 25.9545 11.2548L26 11.3686Z" stroke="#252422" mask="url(#path-2-outside-1_195_232)"/>
</svg>
