<svg width="48" height="42" viewBox="0 0 48 42" fill="none" xmlns="http://www.w3.org/2000/svg">
<path d="M28.2691 4.29545C28.2691 4.03186 28.4861 3.81818 28.7537 3.81818H47.1691C47.4367 3.81818 47.6537 4.03186 47.6537 4.29545V41.5227C47.6537 41.7863 47.4367 42 47.1691 42H28.7537C28.4861 42 28.2691 41.7863 28.2691 41.5227V4.29545Z" fill="#E82523"/>
<path d="M22.4537 0.477272C22.4537 0.213682 22.6707 0 22.9383 0H41.3537C41.6213 0 41.8383 0.213682 41.8383 0.477273V19.0909V37.7045C41.8383 37.9681 41.6213 38.1818 41.3537 38.1818H22.9383C22.6707 38.1818 22.4537 37.9681 22.4537 37.7045V0.477272Z" fill="#75C8CF"/>
<path d="M25.3614 2.38636C25.3614 2.12277 25.5784 1.90909 25.846 1.90909H44.2614C44.529 1.90909 44.746 2.12277 44.746 2.38636V39.6136C44.746 39.8772 44.529 40.0909 44.2614 40.0909H25.846C25.5784 40.0909 25.3614 39.8772 25.3614 39.6136V2.38636Z" fill="#FFFCF2"/>
<path d="M16.7264 14.3778L16.6519 14.3928C16.5425 14.3928 16.448 14.3629 16.3685 14.3033C16.2889 14.2337 16.1994 14.1889 16.1 14.169L16.0851 14.2287C16.0851 14.3082 16.11 14.3828 16.1597 14.4524C16.2094 14.522 16.2641 14.5866 16.3237 14.6463C16.3834 14.706 16.4381 14.7706 16.4878 14.8402C16.5375 14.8999 16.5624 14.9595 16.5624 15.0192C16.5624 15.1087 16.5027 15.1584 16.3834 15.1683C16.274 15.1783 16.1895 15.1932 16.1298 15.2131C16.0105 15.2429 15.9161 15.3175 15.8465 15.4368C15.7769 15.5462 15.6923 15.6705 15.5929 15.8097C15.5034 15.9389 15.3791 16.0582 15.22 16.1676C15.0709 16.267 14.8571 16.3168 14.5787 16.3168C14.2307 16.3168 13.8827 16.2372 13.5347 16.0781C13.1369 15.8892 12.8486 15.6605 12.6696 15.392C12.4906 15.1136 12.3713 14.8253 12.3117 14.527C12.252 14.2287 12.2172 13.9354 12.2073 13.647C12.1973 13.3487 12.1625 13.0803 12.1028 12.8416C12.0432 12.603 11.9288 12.4141 11.7598 12.2749C11.5908 12.1257 11.3124 12.0511 10.9246 12.0511C10.5666 12.0511 10.1888 12.0959 9.79106 12.1854C9.39333 12.2649 9.02543 12.4041 8.68736 12.603C8.35924 12.7919 8.0858 13.0405 7.86705 13.3487C7.6483 13.647 7.53893 14.0099 7.53893 14.4375C7.53893 14.9048 7.55881 15.2678 7.59859 15.5263C7.63836 15.7749 7.72288 15.9588 7.85214 16.0781C7.9814 16.1875 8.17032 16.2521 8.4189 16.272C8.66748 16.282 9.00057 16.2869 9.41819 16.2869C9.49773 16.2869 9.60711 16.3466 9.74631 16.4659C9.89546 16.5753 10.0396 16.7095 10.1788 16.8686C10.328 17.0178 10.4523 17.1719 10.5517 17.331C10.6611 17.4901 10.7158 17.6193 10.7158 17.7188C10.7158 17.9474 10.6163 18.1264 10.4175 18.2557C10.2286 18.375 9.99986 18.4645 9.7314 18.5241C9.46293 18.5838 9.1895 18.6186 8.91109 18.6286C8.63268 18.6385 8.41393 18.6435 8.25484 18.6435C8.0858 18.6435 7.9466 18.6783 7.83722 18.7479C7.73779 18.8175 7.66322 18.907 7.6135 19.0163C7.56378 19.1257 7.52898 19.25 7.5091 19.3892C7.49915 19.5284 7.49418 19.6676 7.49418 19.8068C7.49418 20.473 7.52898 21.1392 7.59859 21.8054C7.67813 22.4616 7.7179 23.1278 7.7179 23.804C7.7179 24.1918 7.66322 24.5099 7.55384 24.7585C7.45441 25.0071 7.40469 25.2109 7.40469 25.37C7.40469 25.4794 7.42458 25.5888 7.46435 25.6982C7.51407 25.8075 7.53893 25.9169 7.53893 26.0263C7.53893 26.245 7.50413 26.4588 7.43452 26.6676C7.37486 26.8665 7.34503 27.0753 7.34503 27.294C7.34503 27.473 7.37486 27.6271 7.43452 27.7564C7.49418 27.8757 7.56378 27.995 7.64333 28.1143C7.72288 28.2237 7.79745 28.3331 7.86705 28.4425C7.93665 28.5518 7.98637 28.6811 8.0162 28.8303C8.28467 28.7905 8.54816 28.7358 8.80668 28.6662C9.07515 28.5966 9.34859 28.5618 9.627 28.5618C9.80597 28.5618 10.0496 28.5717 10.3578 28.5916C10.676 28.6115 10.9842 28.6612 11.2825 28.7408C11.5908 28.8104 11.8543 28.9197 12.073 29.0689C12.3017 29.2081 12.4161 29.402 12.4161 29.6506C12.4161 29.8594 12.3862 30.0582 12.3266 30.2472C12.2769 30.4361 12.1973 30.6101 12.0879 30.7692C11.9786 30.9283 11.8443 31.0575 11.6852 31.157C11.5261 31.2663 11.3422 31.3359 11.1334 31.3658C10.8649 31.4055 10.6014 31.4801 10.3429 31.5895C10.0844 31.6989 9.82089 31.7536 9.55242 31.7536C9.38339 31.7536 9.21932 31.7237 9.06023 31.6641C8.91109 31.6044 8.752 31.5398 8.58296 31.4702C8.42387 31.4105 8.25981 31.3509 8.09077 31.2912C7.92174 31.2315 7.74276 31.2017 7.55384 31.2017C7.1064 31.2017 6.66393 31.2017 6.22643 31.2017C5.79887 31.2116 5.36137 31.2365 4.91393 31.2763C4.66535 31.2962 4.42174 31.3359 4.1831 31.3956C3.94447 31.4652 3.70086 31.5298 3.45228 31.5895C3.21364 31.6591 2.97003 31.7188 2.72146 31.7685C2.47288 31.8182 2.2243 31.843 1.97572 31.843C1.86634 31.843 1.73708 31.8232 1.58793 31.7834C1.43878 31.7436 1.28467 31.6889 1.12557 31.6193C0.976427 31.5497 0.83225 31.4751 0.693046 31.3956C0.563785 31.326 0.45441 31.2514 0.364921 31.1719L0.350006 30.4858C0.350006 30.1577 0.419608 29.9091 0.558813 29.7401C0.698017 29.5611 0.876995 29.4318 1.09574 29.3523C1.32444 29.2628 1.58296 29.2081 1.87131 29.1882C2.15967 29.1683 2.45299 29.1534 2.75128 29.1435C3.05952 29.1335 3.35782 29.1186 3.64617 29.0987C3.93452 29.0689 4.18807 29.0043 4.40682 28.9048C4.63552 28.8054 4.81947 28.6563 4.95867 28.4574C5.09788 28.2486 5.16748 27.9652 5.16748 27.6072C5.16748 27.4581 5.15256 27.3089 5.12273 27.1598C5.10285 27.0107 5.07302 26.8615 5.03324 26.7124H5.06307C5.12273 26.6229 5.16748 26.4936 5.19731 26.3246C5.23708 26.1456 5.26194 25.9567 5.27188 25.7578C5.28182 25.5589 5.2868 25.37 5.2868 25.1911C5.2868 25.0021 5.2868 24.853 5.2868 24.7436C5.2868 24.4652 5.28182 24.1669 5.27188 23.8487C5.26194 23.5206 5.21719 23.2273 5.13765 22.9688C5.11776 22.8991 5.0929 22.8345 5.06307 22.7749C5.04319 22.7053 5.03324 22.6307 5.03324 22.5511C5.03324 22.3224 5.07302 22.0987 5.15256 21.88C5.23211 21.6513 5.27188 21.4226 5.27188 21.1939C5.27188 21.1044 5.26194 21.0398 5.24205 21C5.23211 20.9503 5.21222 20.9105 5.18239 20.8807C5.16251 20.8409 5.14262 20.8061 5.12273 20.7763C5.10285 20.7365 5.08793 20.6868 5.07799 20.6271C5.14759 20.5178 5.20228 20.4034 5.24205 20.2841C5.29177 20.1548 5.31663 20.0256 5.31663 19.8963C5.31663 19.777 5.29177 19.6776 5.24205 19.598C5.19234 19.5085 5.13765 19.429 5.07799 19.3594C5.01833 19.2798 4.95867 19.2003 4.89901 19.1207C4.8493 19.0412 4.82444 18.9517 4.82444 18.8523C4.68523 18.8523 4.50626 18.8523 4.28751 18.8523C4.06876 18.8423 3.83012 18.8274 3.5716 18.8075C3.31307 18.7876 3.05455 18.7528 2.79603 18.7031C2.53751 18.6534 2.30384 18.5888 2.09503 18.5092C1.88623 18.4197 1.71222 18.3104 1.57302 18.1811C1.44376 18.0419 1.37913 17.8729 1.37913 17.674C1.37913 17.5348 1.43381 17.4055 1.54319 17.2862C1.66251 17.157 1.80171 17.0476 1.9608 16.9581C2.12984 16.8686 2.30384 16.799 2.48282 16.7493C2.67174 16.6996 2.83083 16.6747 2.96009 16.6747C3.0993 16.6747 3.2385 16.6797 3.37771 16.6896C3.52685 16.6996 3.67103 16.7045 3.81023 16.7045C3.95938 16.7045 4.13836 16.6946 4.34717 16.6747C4.56592 16.6548 4.73495 16.6001 4.85427 16.5107C4.8841 16.4808 4.9189 16.4063 4.95867 16.2869C4.99844 16.1577 5.03324 16.0185 5.06307 15.8693C5.0929 15.7102 5.11776 15.5611 5.13765 15.4219C5.15753 15.2727 5.16748 15.1733 5.16748 15.1236C5.16748 14.8949 5.14759 14.6761 5.10782 14.4673C5.07799 14.2585 5.06307 14.0398 5.06307 13.8111C5.06307 13.483 5.10285 13.1797 5.18239 12.9013C5.26194 12.6229 5.42103 12.3643 5.65967 12.1257C5.93807 11.8473 6.20157 11.5788 6.45015 11.3203C6.70867 11.0518 6.97217 10.8132 7.24063 10.6044C7.51904 10.3956 7.81734 10.2166 8.13552 10.0675C8.46364 9.91833 8.84148 9.81392 9.26904 9.75426C9.56734 9.71449 9.86563 9.66975 10.1639 9.62003C10.4722 9.57031 10.7804 9.54546 11.0886 9.54546C11.2577 9.54546 11.4814 9.57031 11.7598 9.62003C12.0482 9.6598 12.3514 9.72443 12.6696 9.81392C12.9977 9.89347 13.3259 9.9929 13.654 10.1122C13.9821 10.2315 14.2804 10.3707 14.5489 10.5298C14.8173 10.679 15.0361 10.848 15.2051 11.0369C15.3742 11.2159 15.4587 11.4098 15.4587 11.6186C15.7669 11.6286 15.9906 11.733 16.1298 11.9318C16.279 12.1307 16.3834 12.3693 16.443 12.6477C16.5027 12.9261 16.5425 13.2195 16.5624 13.5277C16.5823 13.826 16.627 14.0845 16.6966 14.3033L16.7264 14.3778Z" fill="#FFFCF2"/>
</svg>
