<svg width="49" height="42" viewBox="0 0 49 42" fill="none" xmlns="http://www.w3.org/2000/svg">
<path d="M28.8003 4.29545C28.8003 4.03186 29.0173 3.81818 29.2849 3.81818H47.7003C47.968 3.81818 48.1849 4.03186 48.1849 4.29545V41.5227C48.1849 41.7863 47.968 42 47.7003 42H29.2849C29.0173 42 28.8003 41.7863 28.8003 41.5227V4.29545Z" fill="#E82523"/>
<path d="M22.9849 0.477272C22.9849 0.213682 23.2019 0 23.4696 0H41.8849C42.1526 0 42.3696 0.213682 42.3696 0.477273V37.7045C42.3696 37.9681 42.1526 38.1818 41.8849 38.1818H23.4696C23.2019 38.1818 22.9849 37.9681 22.9849 37.7045V0.477272Z" fill="#75C8CF"/>
<path d="M25.8926 2.38636C25.8926 2.12277 26.1096 1.90909 26.3772 1.90909H44.7926C45.0603 1.90909 45.2772 2.12277 45.2772 2.38636V39.6136C45.2772 39.8772 45.0603 40.0909 44.7926 40.0909H26.3772C26.1096 40.0909 25.8926 39.8772 25.8926 39.6136V2.38636Z" fill="#252422"/>
<path d="M17.2577 14.3778L17.1831 14.3928C17.0737 14.3928 16.9793 14.3629 16.8997 14.3033C16.8202 14.2337 16.7307 14.1889 16.6313 14.169L16.6163 14.2287C16.6163 14.3082 16.6412 14.3828 16.6909 14.4524C16.7406 14.522 16.7953 14.5866 16.855 14.6463C16.9146 14.706 16.9693 14.7706 17.019 14.8402C17.0688 14.8999 17.0936 14.9595 17.0936 15.0192C17.0936 15.1087 17.034 15.1584 16.9146 15.1683C16.8053 15.1783 16.7207 15.1932 16.6611 15.2131C16.5418 15.2429 16.4473 15.3175 16.3777 15.4368C16.3081 15.5462 16.2236 15.6705 16.1242 15.8097C16.0347 15.9389 15.9104 16.0582 15.7513 16.1676C15.6021 16.267 15.3884 16.3168 15.1099 16.3168C14.7619 16.3168 14.4139 16.2372 14.0659 16.0781C13.6682 15.8892 13.3798 15.6605 13.2009 15.392C13.0219 15.1136 12.9026 14.8253 12.8429 14.527C12.7832 14.2287 12.7484 13.9354 12.7385 13.647C12.7286 13.3487 12.6938 13.0803 12.6341 12.8416C12.5744 12.603 12.4601 12.4141 12.2911 12.2749C12.122 12.1257 11.8436 12.0511 11.4558 12.0511C11.0979 12.0511 10.72 12.0959 10.3223 12.1854C9.92458 12.2649 9.55668 12.4041 9.21861 12.603C8.89049 12.7919 8.61705 13.0405 8.3983 13.3487C8.17955 13.647 8.07018 14.0099 8.07018 14.4375C8.07018 14.9048 8.09006 15.2678 8.12984 15.5263C8.16961 15.7749 8.25413 15.9588 8.38339 16.0781C8.51265 16.1875 8.70157 16.2521 8.95015 16.272C9.19873 16.282 9.53182 16.2869 9.94944 16.2869C10.029 16.2869 10.1384 16.3466 10.2776 16.4659C10.4267 16.5753 10.5709 16.7095 10.7101 16.8686C10.8592 17.0178 10.9835 17.1719 11.083 17.331C11.1923 17.4901 11.247 17.6193 11.247 17.7187C11.247 17.9474 11.1476 18.1264 10.9487 18.2557C10.7598 18.375 10.5311 18.4645 10.2626 18.5241C9.99418 18.5838 9.72075 18.6186 9.44234 18.6285C9.16393 18.6385 8.94518 18.6435 8.78609 18.6435C8.61705 18.6435 8.47785 18.6783 8.36847 18.7479C8.26904 18.8175 8.19447 18.907 8.14475 19.0163C8.09503 19.1257 8.06023 19.25 8.04035 19.3892C8.0304 19.5284 8.02543 19.6676 8.02543 19.8068C8.02543 20.473 8.06023 21.1392 8.12984 21.8054C8.20938 22.4616 8.24915 23.1278 8.24915 23.804C8.24915 24.1918 8.19447 24.5099 8.08509 24.7585C7.98566 25.0071 7.93594 25.2109 7.93594 25.37C7.93594 25.4794 7.95583 25.5888 7.9956 25.6982C8.04532 25.8075 8.07018 25.9169 8.07018 26.0263C8.07018 26.245 8.03538 26.4588 7.96577 26.6676C7.90611 26.8665 7.87628 27.0753 7.87628 27.294C7.87628 27.473 7.90611 27.6271 7.96577 27.7564C8.02543 27.8757 8.09503 27.995 8.17458 28.1143C8.25413 28.2237 8.3287 28.3331 8.3983 28.4425C8.4679 28.5518 8.51762 28.6811 8.54745 28.8303C8.81592 28.7905 9.07941 28.7358 9.33793 28.6662C9.6064 28.5966 9.87984 28.5618 10.1582 28.5618C10.3372 28.5618 10.5808 28.5717 10.8891 28.5916C11.2073 28.6115 11.5155 28.6612 11.8138 28.7408C12.122 28.8104 12.3855 28.9197 12.6043 29.0689C12.833 29.2081 12.9473 29.402 12.9473 29.6506C12.9473 29.8594 12.9175 30.0582 12.8578 30.2472C12.8081 30.4361 12.7286 30.6101 12.6192 30.7692C12.5098 30.9283 12.3756 31.0575 12.2165 31.157C12.0574 31.2663 11.8734 31.3359 11.6646 31.3658C11.3962 31.4055 11.1327 31.4801 10.8742 31.5895C10.6156 31.6989 10.3521 31.7535 10.0837 31.7535C9.91464 31.7535 9.75057 31.7237 9.59148 31.6641C9.44234 31.6044 9.28325 31.5398 9.11421 31.4702C8.95512 31.4105 8.79106 31.3508 8.62202 31.2912C8.45299 31.2315 8.27401 31.2017 8.08509 31.2017C7.63765 31.2017 7.19518 31.2017 6.75768 31.2017C6.33012 31.2116 5.89262 31.2365 5.44518 31.2763C5.1966 31.2962 4.95299 31.3359 4.71435 31.3956C4.47572 31.4652 4.23211 31.5298 3.98353 31.5895C3.74489 31.6591 3.50128 31.7187 3.25271 31.7685C3.00413 31.8182 2.75555 31.843 2.50697 31.843C2.39759 31.843 2.26833 31.8232 2.11918 31.7834C1.97003 31.7436 1.81592 31.6889 1.65682 31.6193C1.50768 31.5497 1.3635 31.4751 1.2243 31.3956C1.09503 31.326 0.98566 31.2514 0.896171 31.1719L0.881256 30.4858C0.881256 30.1577 0.950858 29.9091 1.09006 29.7401C1.22927 29.5611 1.40824 29.4318 1.62699 29.3523C1.85569 29.2628 2.11421 29.2081 2.40256 29.1882C2.69092 29.1683 2.98424 29.1534 3.28253 29.1435C3.59077 29.1335 3.88907 29.1186 4.17742 29.0987C4.46577 29.0689 4.71932 29.0043 4.93807 28.9048C5.16677 28.8054 5.35072 28.6562 5.48992 28.4574C5.62913 28.2486 5.69873 27.9652 5.69873 27.6072C5.69873 27.4581 5.68381 27.3089 5.65398 27.1598C5.6341 27.0107 5.60427 26.8615 5.56449 26.7124H5.59432C5.65398 26.6229 5.69873 26.4936 5.72856 26.3246C5.76833 26.1456 5.79319 25.9567 5.80313 25.7578C5.81307 25.5589 5.81805 25.37 5.81805 25.191C5.81805 25.0021 5.81805 24.853 5.81805 24.7436C5.81805 24.4652 5.81307 24.1669 5.80313 23.8487C5.79319 23.5206 5.74844 23.2273 5.6689 22.9687C5.64901 22.8991 5.62415 22.8345 5.59432 22.7749C5.57444 22.7053 5.56449 22.6307 5.56449 22.5511C5.56449 22.3224 5.60427 22.0987 5.68381 21.88C5.76336 21.6513 5.80313 21.4226 5.80313 21.1939C5.80313 21.1044 5.79319 21.0398 5.7733 21C5.76336 20.9503 5.74347 20.9105 5.71364 20.8807C5.69376 20.8409 5.67387 20.8061 5.65398 20.7763C5.6341 20.7365 5.61918 20.6868 5.60924 20.6271C5.67884 20.5178 5.73353 20.4034 5.7733 20.2841C5.82302 20.1548 5.84788 20.0256 5.84788 19.8963C5.84788 19.777 5.82302 19.6776 5.7733 19.598C5.72359 19.5085 5.6689 19.429 5.60924 19.3594C5.54958 19.2798 5.48992 19.2003 5.43026 19.1207C5.38055 19.0412 5.35569 18.9517 5.35569 18.8523C5.21648 18.8523 5.03751 18.8523 4.81876 18.8523C4.60001 18.8423 4.36137 18.8274 4.10285 18.8075C3.84432 18.7876 3.5858 18.7528 3.32728 18.7031C3.06876 18.6534 2.83509 18.5888 2.62628 18.5092C2.41748 18.4197 2.24347 18.3104 2.10427 18.1811C1.97501 18.0419 1.91038 17.8729 1.91038 17.674C1.91038 17.5348 1.96506 17.4055 2.07444 17.2862C2.19376 17.157 2.33296 17.0476 2.49205 16.9581C2.66109 16.8686 2.83509 16.799 3.01407 16.7493C3.20299 16.6996 3.36208 16.6747 3.49134 16.6747C3.63055 16.6747 3.76975 16.6797 3.90896 16.6896C4.0581 16.6996 4.20228 16.7045 4.34148 16.7045C4.49063 16.7045 4.66961 16.6946 4.87842 16.6747C5.09717 16.6548 5.2662 16.6001 5.38552 16.5107C5.41535 16.4808 5.45015 16.4062 5.48992 16.2869C5.52969 16.1577 5.56449 16.0185 5.59432 15.8693C5.62415 15.7102 5.64901 15.5611 5.6689 15.4219C5.68878 15.2727 5.69873 15.1733 5.69873 15.1236C5.69873 14.8949 5.67884 14.6761 5.63907 14.4673C5.60924 14.2585 5.59432 14.0398 5.59432 13.8111C5.59432 13.483 5.6341 13.1797 5.71364 12.9013C5.79319 12.6229 5.95228 12.3643 6.19092 12.1257C6.46932 11.8473 6.73282 11.5788 6.9814 11.3203C7.23992 11.0518 7.50342 10.8132 7.77188 10.6044C8.05029 10.3956 8.34859 10.2166 8.66677 10.0675C8.99489 9.91832 9.37273 9.81392 9.80029 9.75426C10.0986 9.71449 10.3969 9.66974 10.6952 9.62003C11.0034 9.57031 11.3117 9.54545 11.6199 9.54545C11.7889 9.54545 12.0126 9.57031 12.2911 9.62003C12.5794 9.6598 12.8827 9.72443 13.2009 9.81392C13.529 9.89346 13.8571 9.9929 14.1852 10.1122C14.5134 10.2315 14.8117 10.3707 15.0801 10.5298C15.3486 10.679 15.5673 10.848 15.7364 11.0369C15.9054 11.2159 15.9899 11.4098 15.9899 11.6186C16.2982 11.6285 16.5219 11.733 16.6611 11.9318C16.8102 12.1307 16.9146 12.3693 16.9743 12.6477C17.034 12.9261 17.0737 13.2195 17.0936 13.5277C17.1135 13.826 17.1582 14.0845 17.2278 14.3033L17.2577 14.3778Z" fill="#252422"/>
</svg>
