<svg width="17" height="42" viewBox="0 0 17 42" fill="none" xmlns="http://www.w3.org/2000/svg">
<path d="M16.3764 11.6836L16.3018 11.6985C16.1925 11.6985 16.098 11.6687 16.0185 11.609C15.9389 11.5394 15.8494 11.4947 15.75 11.4748L15.7351 11.5344C15.7351 11.614 15.7599 11.6886 15.8097 11.7582C15.8594 11.8278 15.9141 11.8924 15.9737 11.9521C16.0334 12.0117 16.0881 12.0763 16.1378 12.146C16.1875 12.2056 16.2124 12.2653 16.2124 12.3249C16.2124 12.4144 16.1527 12.4641 16.0334 12.4741C15.924 12.484 15.8395 12.4989 15.7798 12.5188C15.6605 12.5487 15.5661 12.6232 15.4964 12.7425C15.4268 12.8519 15.3423 12.9762 15.2429 13.1154C15.1534 13.2447 15.0291 13.364 14.87 13.4734C14.7209 13.5728 14.5071 13.6225 14.2287 13.6225C13.8807 13.6225 13.5327 13.543 13.1847 13.3839C12.7869 13.195 12.4986 12.9663 12.3196 12.6978C12.1406 12.4194 12.0213 12.131 11.9616 11.8327C11.902 11.5344 11.8672 11.2411 11.8572 10.9528C11.8473 10.6545 11.8125 10.386 11.7528 10.1474C11.6932 9.90874 11.5788 9.71982 11.4098 9.58061C11.2408 9.43146 10.9624 9.35689 10.5746 9.35689C10.2166 9.35689 9.83878 9.40163 9.44105 9.49112C9.04332 9.57067 8.67543 9.70987 8.33736 9.90874C8.00923 10.0977 7.7358 10.3462 7.51705 10.6545C7.2983 10.9528 7.18892 11.3157 7.18892 11.7433C7.18892 12.2106 7.20881 12.5735 7.24858 12.832C7.28835 13.0806 7.37287 13.2646 7.50213 13.3839C7.63139 13.4933 7.82031 13.5579 8.06889 13.5778C8.31747 13.5877 8.65057 13.5927 9.06818 13.5927C9.14773 13.5927 9.2571 13.6523 9.39631 13.7717C9.54545 13.881 9.68963 14.0153 9.82884 14.1744C9.97798 14.3235 10.1023 14.4776 10.2017 14.6367C10.3111 14.7958 10.3658 14.9251 10.3658 15.0245C10.3658 15.2532 10.2663 15.4322 10.0675 15.5614C9.87855 15.6808 9.64986 15.7702 9.38139 15.8299C9.11293 15.8896 8.83949 15.9244 8.56108 15.9343C8.28267 15.9442 8.06392 15.9492 7.90483 15.9492C7.7358 15.9492 7.59659 15.984 7.48722 16.0536C7.38778 16.1232 7.31321 16.2127 7.26349 16.3221C7.21378 16.4315 7.17898 16.5558 7.15909 16.695C7.14915 16.8342 7.14418 16.9734 7.14418 17.1126C7.14418 17.7788 7.17898 18.445 7.24858 19.1112C7.32813 19.7674 7.3679 20.4336 7.3679 21.1097C7.3679 21.4975 7.31321 21.8157 7.20384 22.0643C7.1044 22.3129 7.05469 22.5167 7.05469 22.6758C7.05469 22.7852 7.07457 22.8945 7.11435 23.0039C7.16406 23.1133 7.18892 23.2227 7.18892 23.332C7.18892 23.5508 7.15412 23.7646 7.08452 23.9734C7.02486 24.1722 6.99503 24.381 6.99503 24.5998C6.99503 24.7788 7.02486 24.9329 7.08452 25.0621C7.14418 25.1815 7.21378 25.3008 7.29332 25.4201C7.37287 25.5295 7.44744 25.6388 7.51705 25.7482C7.58665 25.8576 7.63636 25.9869 7.66619 26.136C7.93466 26.0962 8.19815 26.0415 8.45668 25.9719C8.72514 25.9023 8.99858 25.8675 9.27699 25.8675C9.45597 25.8675 9.69957 25.8775 10.0078 25.8974C10.326 25.9173 10.6342 25.967 10.9325 26.0465C11.2408 26.1161 11.5043 26.2255 11.723 26.3746C11.9517 26.5138 12.0661 26.7077 12.0661 26.9563C12.0661 27.1651 12.0362 27.364 11.9766 27.5529C11.9268 27.7418 11.8473 27.9158 11.7379 28.0749C11.6286 28.234 11.4943 28.3633 11.3352 28.4627C11.1761 28.5721 10.9922 28.6417 10.7834 28.6715C10.5149 28.7113 10.2514 28.7859 9.9929 28.8952C9.73438 29.0046 9.47088 29.0593 9.20242 29.0593C9.03338 29.0593 8.86932 29.0295 8.71023 28.9698C8.56108 28.9102 8.40199 28.8455 8.23295 28.7759C8.07386 28.7163 7.9098 28.6566 7.74077 28.5969C7.57173 28.5373 7.39276 28.5075 7.20384 28.5075C6.75639 28.5075 6.31392 28.5075 5.87642 28.5075C5.44886 28.5174 5.01136 28.5423 4.56392 28.582C4.31534 28.6019 4.07173 28.6417 3.8331 28.7013C3.59446 28.771 3.35085 28.8356 3.10227 28.8952C2.86364 28.9648 2.62003 29.0245 2.37145 29.0742C2.12287 29.1239 1.87429 29.1488 1.62571 29.1488C1.51634 29.1488 1.38707 29.1289 1.23793 29.0891C1.08878 29.0494 0.934659 28.9947 0.775568 28.9251C0.626421 28.8555 0.482244 28.7809 0.34304 28.7013C0.213778 28.6317 0.104403 28.5572 0.0149148 28.4776L0 27.7915C0 27.4634 0.0696023 27.2148 0.208807 27.0458C0.348011 26.8668 0.526989 26.7376 0.745739 26.658C0.974432 26.5685 1.23295 26.5138 1.52131 26.494C1.80966 26.4741 2.10298 26.4592 2.40128 26.4492C2.70952 26.4393 3.00781 26.4244 3.29616 26.4045C3.58452 26.3746 3.83807 26.31 4.05682 26.2106C4.28551 26.1112 4.46946 25.962 4.60866 25.7631C4.74787 25.5543 4.81747 25.271 4.81747 24.913C4.81747 24.7638 4.80256 24.6147 4.77273 24.4656C4.75284 24.3164 4.72301 24.1673 4.68324 24.0181H4.71307C4.77273 23.9286 4.81747 23.7994 4.8473 23.6303C4.88707 23.4513 4.91193 23.2624 4.92188 23.0636C4.93182 22.8647 4.93679 22.6758 4.93679 22.4968C4.93679 22.3079 4.93679 22.1587 4.93679 22.0494C4.93679 21.771 4.93182 21.4727 4.92188 21.1545C4.91193 20.8263 4.86719 20.533 4.78764 20.2745C4.76776 20.2049 4.7429 20.1403 4.71307 20.0806C4.69318 20.011 4.68324 19.9364 4.68324 19.8569C4.68324 19.6282 4.72301 19.4045 4.80256 19.1857C4.8821 18.957 4.92188 18.7283 4.92188 18.4996C4.92188 18.4102 4.91193 18.3455 4.89205 18.3058C4.8821 18.256 4.86222 18.2163 4.83239 18.1864C4.8125 18.1467 4.79261 18.1119 4.77273 18.082C4.75284 18.0423 4.73793 17.9925 4.72798 17.9329C4.79759 17.8235 4.85227 17.7092 4.89205 17.5898C4.94176 17.4606 4.96662 17.3313 4.96662 17.2021C4.96662 17.0827 4.94176 16.9833 4.89205 16.9038C4.84233 16.8143 4.78764 16.7347 4.72798 16.6651C4.66832 16.5856 4.60867 16.506 4.54901 16.4265C4.49929 16.3469 4.47443 16.2575 4.47443 16.158C4.33523 16.158 4.15625 16.158 3.9375 16.158C3.71875 16.1481 3.48011 16.1332 3.22159 16.1133C2.96307 16.0934 2.70455 16.0586 2.44602 16.0089C2.1875 15.9592 1.95384 15.8945 1.74503 15.815C1.53622 15.7255 1.36222 15.6161 1.22301 15.4869C1.09375 15.3477 1.02912 15.1786 1.02912 14.9798C1.02912 14.8406 1.08381 14.7113 1.19318 14.592C1.3125 14.4627 1.4517 14.3533 1.6108 14.2638C1.77983 14.1744 1.95384 14.1048 2.13281 14.055C2.32173 14.0053 2.48082 13.9805 2.61009 13.9805C2.74929 13.9805 2.88849 13.9854 3.0277 13.9954C3.17685 14.0053 3.32102 14.0103 3.46023 14.0103C3.60938 14.0103 3.78835 14.0004 3.99716 13.9805C4.21591 13.9606 4.38494 13.9059 4.50426 13.8164C4.53409 13.7866 4.56889 13.712 4.60866 13.5927C4.64844 13.4634 4.68324 13.3242 4.71307 13.1751C4.7429 13.016 4.76776 12.8668 4.78764 12.7276C4.80753 12.5785 4.81747 12.479 4.81747 12.4293C4.81747 12.2006 4.79759 11.9819 4.75781 11.7731C4.72798 11.5643 4.71307 11.3455 4.71307 11.1168C4.71307 10.7887 4.75284 10.4854 4.83239 10.207C4.91193 9.92862 5.07102 9.6701 5.30966 9.43146C5.58807 9.15305 5.85156 8.88459 6.10014 8.62607C6.35867 8.3576 6.62216 8.11896 6.89063 7.91016C7.16903 7.70135 7.46733 7.52237 7.78551 7.37322C8.11364 7.22408 8.49148 7.11967 8.91903 7.06001C9.21733 7.02024 9.51563 6.9755 9.81392 6.92578C10.1222 6.87607 10.4304 6.85121 10.7386 6.85121C10.9077 6.85121 11.1314 6.87607 11.4098 6.92578C11.6982 6.96555 12.0014 7.03019 12.3196 7.11967C12.6477 7.19922 12.9759 7.29865 13.304 7.41797C13.6321 7.53729 13.9304 7.67649 14.1989 7.83558C14.4673 7.98473 14.6861 8.15376 14.8551 8.34268C15.0241 8.52166 15.1087 8.71555 15.1087 8.92436C15.4169 8.9343 15.6406 9.03871 15.7798 9.23757C15.929 9.43643 16.0334 9.67507 16.093 9.95348C16.1527 10.2319 16.1925 10.5252 16.2124 10.8335C16.2322 11.1317 16.277 11.3903 16.3466 11.609L16.3764 11.6836Z" fill="#252422"/>
</svg>
