<svg width="48" height="48" viewBox="0 0 48 48" fill="none" xmlns="http://www.w3.org/2000/svg">
<path fill-rule="evenodd" clip-rule="evenodd" d="M16.5 18.5C16.5 17.9477 16.9477 17.5 17.5 17.5H30.5C31.0523 17.5 31.5 17.9477 31.5 18.5C31.5 19.0523 31.0523 19.5 30.5 19.5H17.5C16.9477 19.5 16.5 19.0523 16.5 18.5Z" fill="#252422"/>
<path fill-rule="evenodd" clip-rule="evenodd" d="M16.5 24C16.5 23.4477 16.9477 23 17.5 23H30.5C31.0523 23 31.5 23.4477 31.5 24C31.5 24.5523 31.0523 25 30.5 25H17.5C16.9477 25 16.5 24.5523 16.5 24Z" fill="#252422"/>
<path fill-rule="evenodd" clip-rule="evenodd" d="M21.5 29.5C21.5 28.9477 21.9477 28.5 22.5 28.5L30.5 28.5C31.0523 28.5 31.5 28.9477 31.5 29.5C31.5 30.0523 31.0523 30.5 30.5 30.5L22.5 30.5C21.9477 30.5 21.5 30.0523 21.5 29.5Z" fill="#252422"/>
<rect x="0.5" y="0.5" width="47" height="47" stroke="black"/>
</svg>
